<svg xmlns="http://www.w3.org/2000/svg" viewBox="0 0 500 500" width="500" height="500">
    <defs>
      <radialGradient id="grad-glow-tango-ice-blast" cx="50%" cy="50%" r="50%">
        <stop offset="0%" stop-color="#0284C7" stop-opacity="0.4"/>
        <stop offset="100%" stop-color="#0284C7" stop-opacity="0"/>
      </radialGradient>
      <linearGradient id="item-grad-tango-ice-blast" x1="0%" y1="0%" x2="100%" y2="100%">
        <stop offset="0%" stop-color="#FBBF24"/>
        <stop offset="50%" stop-color="#D97706"/>
        <stop offset="100%" stop-color="#92400E"/>
      </linearGradient>
      <filter id="shadow-tango-ice-blast" x="-20%" y="-20%" width="140%" height="140%">
        <feDropShadow dx="0" dy="15" stdDeviation="12" flood-color="#000000" flood-opacity="0.6"/>
      </filter>
    </defs>
    <circle cx="250" cy="250" r="220" fill="url(#grad-glow-tango-ice-blast)"/>
    <g filter="url(#shadow-tango-ice-blast)">
      
        <path d="M170,180 L190,410 Q250,430 310,410 L330,180 Z" fill="rgba(255,255,255,0.2)" stroke="#38BDF8" stroke-width="4"/>
        <path d="M175,200 L188,390 Q250,410 312,390 L325,200 Z" fill="#0284C7"/>
        <path d="M175,280 L188,390 Q250,410 312,390 L325,280 Z" fill="#E11D48"/>
        <path d="M150,180 C150,100 350,100 350,180 Z" fill="rgba(255,255,255,0.3)" stroke="#E0F2FE" stroke-width="4"/>
        <rect x="240" y="40" width="20" height="160" rx="5" fill="#FACC15" transform="rotate(-12 240 40)"/>
      
    </g>
  </svg>